<mxfile host="app.diagrams.net" agent="Mozilla/5.0 (Windows NT 10.0; Win64; x64) AppleWebKit/537.36 (KHTML, like Gecko) Chrome/126.0.0.0 YaBrowser/24.7.0.0 Safari/537.36" version="24.7.7">
  <diagram name="Страница — 1" id="FYjnUAg64ZntbGETtSfr">
    <mxGraphModel dx="2261" dy="1960" grid="1" gridSize="10" guides="1" tooltips="1" connect="1" arrows="1" fold="1" page="1" pageScale="1" pageWidth="827" pageHeight="1169" math="0" shadow="0">
      <root>
        <mxCell id="0" />
        <mxCell id="1" parent="0" />
        <mxCell id="K2EOrlknTvAKyvj50fSl-9" value="Backend" style="rounded=0;whiteSpace=wrap;html=1;" vertex="1" parent="1">
          <mxGeometry x="44" y="50" width="306" height="220" as="geometry" />
        </mxCell>
        <mxCell id="K2EOrlknTvAKyvj50fSl-11" value="Регистрация и авторизация" style="ellipse;whiteSpace=wrap;html=1;" vertex="1" parent="1">
          <mxGeometry x="60" y="70" width="120" height="80" as="geometry" />
        </mxCell>
        <mxCell id="K2EOrlknTvAKyvj50fSl-12" value="Создание и управление командами" style="ellipse;whiteSpace=wrap;html=1;" vertex="1" parent="1">
          <mxGeometry x="210" y="70" width="120" height="80" as="geometry" />
        </mxCell>
        <mxCell id="K2EOrlknTvAKyvj50fSl-13" value="Управление задачами" style="ellipse;whiteSpace=wrap;html=1;" vertex="1" parent="1">
          <mxGeometry x="210" y="170" width="120" height="80" as="geometry" />
        </mxCell>
        <mxCell id="K2EOrlknTvAKyvj50fSl-18" value="Возможность коммуникации" style="ellipse;whiteSpace=wrap;html=1;" vertex="1" parent="1">
          <mxGeometry x="60" y="170" width="120" height="80" as="geometry" />
        </mxCell>
        <mxCell id="K2EOrlknTvAKyvj50fSl-21" value="Nginx" style="rounded=0;whiteSpace=wrap;html=1;" vertex="1" parent="1">
          <mxGeometry x="230" y="-120" width="320" height="90" as="geometry" />
        </mxCell>
        <mxCell id="K2EOrlknTvAKyvj50fSl-22" value="" style="endArrow=classic;html=1;rounded=0;exitX=0.5;exitY=1;exitDx=0;exitDy=0;entryX=0.5;entryY=0;entryDx=0;entryDy=0;" edge="1" parent="1" source="K2EOrlknTvAKyvj50fSl-21" target="K2EOrlknTvAKyvj50fSl-9">
          <mxGeometry width="50" height="50" relative="1" as="geometry">
            <mxPoint x="180" y="10" as="sourcePoint" />
            <mxPoint x="230" y="-40" as="targetPoint" />
          </mxGeometry>
        </mxCell>
        <mxCell id="K2EOrlknTvAKyvj50fSl-23" value="Web Client" style="rounded=0;whiteSpace=wrap;html=1;" vertex="1" parent="1">
          <mxGeometry x="228.5" y="-600" width="323" height="120" as="geometry" />
        </mxCell>
        <mxCell id="K2EOrlknTvAKyvj50fSl-24" value="" style="endArrow=classic;html=1;rounded=0;entryX=0.5;entryY=0;entryDx=0;entryDy=0;exitX=0.5;exitY=1;exitDx=0;exitDy=0;" edge="1" parent="1" source="K2EOrlknTvAKyvj50fSl-23" target="K2EOrlknTvAKyvj50fSl-21">
          <mxGeometry width="50" height="50" relative="1" as="geometry">
            <mxPoint x="200" y="-200" as="sourcePoint" />
            <mxPoint x="250" y="-250" as="targetPoint" />
          </mxGeometry>
        </mxCell>
        <mxCell id="K2EOrlknTvAKyvj50fSl-25" value="Frontend" style="rounded=0;whiteSpace=wrap;html=1;" vertex="1" parent="1">
          <mxGeometry x="460" y="50" width="300" height="130" as="geometry" />
        </mxCell>
        <mxCell id="K2EOrlknTvAKyvj50fSl-26" value="" style="endArrow=classic;html=1;rounded=0;exitX=0.5;exitY=1;exitDx=0;exitDy=0;entryX=0.5;entryY=0;entryDx=0;entryDy=0;" edge="1" parent="1" source="K2EOrlknTvAKyvj50fSl-21" target="K2EOrlknTvAKyvj50fSl-25">
          <mxGeometry width="50" height="50" relative="1" as="geometry">
            <mxPoint x="410" y="50" as="sourcePoint" />
            <mxPoint x="460" as="targetPoint" />
          </mxGeometry>
        </mxCell>
        <mxCell id="K2EOrlknTvAKyvj50fSl-27" value="Gitlab Integration" style="rounded=0;whiteSpace=wrap;html=1;" vertex="1" parent="1">
          <mxGeometry x="-430" y="200" width="290" height="220" as="geometry" />
        </mxCell>
        <mxCell id="K2EOrlknTvAKyvj50fSl-28" value="BD" style="shape=cylinder3;whiteSpace=wrap;html=1;boundedLbl=1;backgroundOutline=1;size=15;" vertex="1" parent="1">
          <mxGeometry x="160" y="350" width="60" height="80" as="geometry" />
        </mxCell>
        <mxCell id="K2EOrlknTvAKyvj50fSl-29" value="" style="endArrow=classic;html=1;rounded=0;exitX=0.48;exitY=0.982;exitDx=0;exitDy=0;exitPerimeter=0;entryX=0.5;entryY=0;entryDx=0;entryDy=0;entryPerimeter=0;" edge="1" parent="1" source="K2EOrlknTvAKyvj50fSl-9" target="K2EOrlknTvAKyvj50fSl-28">
          <mxGeometry width="50" height="50" relative="1" as="geometry">
            <mxPoint x="180" y="320" as="sourcePoint" />
            <mxPoint x="230" y="270" as="targetPoint" />
          </mxGeometry>
        </mxCell>
        <mxCell id="K2EOrlknTvAKyvj50fSl-30" value="" style="endArrow=classic;html=1;rounded=0;exitX=0;exitY=0.5;exitDx=0;exitDy=0;entryX=1;entryY=0.5;entryDx=0;entryDy=0;" edge="1" parent="1" source="K2EOrlknTvAKyvj50fSl-9" target="K2EOrlknTvAKyvj50fSl-27">
          <mxGeometry width="50" height="50" relative="1" as="geometry">
            <mxPoint x="-30" y="280" as="sourcePoint" />
            <mxPoint x="20" y="230" as="targetPoint" />
          </mxGeometry>
        </mxCell>
        <mxCell id="K2EOrlknTvAKyvj50fSl-33" value="&lt;p style=&quot;line-height: 120%; padding-top: 450px;&quot;&gt;Local Server&lt;/p&gt;" style="rounded=0;whiteSpace=wrap;html=1;align=right;" vertex="1" parent="1">
          <mxGeometry x="-725" y="520" width="880" height="530" as="geometry" />
        </mxCell>
        <mxCell id="K2EOrlknTvAKyvj50fSl-34" value="GItlab CE" style="rounded=0;whiteSpace=wrap;html=1;align=center;spacingTop=0;" vertex="1" parent="1">
          <mxGeometry x="-665" y="707.5" width="160" height="165" as="geometry" />
        </mxCell>
        <mxCell id="K2EOrlknTvAKyvj50fSl-39" value="VM №1" style="rounded=0;whiteSpace=wrap;html=1;align=right;" vertex="1" parent="1">
          <mxGeometry x="-358" y="545" width="220" height="150" as="geometry" />
        </mxCell>
        <mxCell id="K2EOrlknTvAKyvj50fSl-35" value="Gitlab Runner №1&lt;span style=&quot;color: rgba(0, 0, 0, 0); font-family: monospace; font-size: 0px; text-align: start; text-wrap: nowrap;&quot;&gt;%3CmxGraphModel%3E%3Croot%3E%3CmxCell%20id%3D%220%22%2F%3E%3CmxCell%20id%3D%221%22%20parent%3D%220%22%2F%3E%3CmxCell%20id%3D%222%22%20value%3D%22%22%20style%3D%22endArrow%3Dclassic%3Bhtml%3D1%3Brounded%3D0%3BentryX%3D0.767%3BentryY%3D0.113%3BentryDx%3D0%3BentryDy%3D0%3BentryPerimeter%3D0%3BexitX%3D0%3BexitY%3D1%3BexitDx%3D0%3BexitDy%3D0%3B%22%20edge%3D%221%22%20parent%3D%221%22%3E%3CmxGeometry%20width%3D%2250%22%20height%3D%2250%22%20relative%3D%221%22%20as%3D%22geometry%22%3E%3CmxPoint%20x%3D%22358%22%20y%3D%22238%22%20as%3D%22sourcePoint%22%2F%3E%3CmxPoint%20x%3D%22192%22%20y%3D%22409%22%20as%3D%22targetPoint%22%2F%3E%3C%2FmxGeometry%3E%3C%2FmxCell%3E%3C%2Froot%3E%3C%2FmxGraphModel%32&lt;/span&gt;" style="rounded=0;whiteSpace=wrap;html=1;" vertex="1" parent="1">
          <mxGeometry x="-345" y="555" width="120" height="60" as="geometry" />
        </mxCell>
        <mxCell id="K2EOrlknTvAKyvj50fSl-43" value="VM №2" style="rounded=0;whiteSpace=wrap;html=1;align=right;" vertex="1" parent="1">
          <mxGeometry x="-358" y="710" width="220" height="150" as="geometry" />
        </mxCell>
        <mxCell id="K2EOrlknTvAKyvj50fSl-44" value="Gitlab Runner №2&lt;span style=&quot;color: rgba(0, 0, 0, 0); font-family: monospace; font-size: 0px; text-align: start; text-wrap: nowrap;&quot;&gt;%3CmxGraphModel%3E%3Croot%3E%3CmxCell%20id%3D%220%22%2F%3E%3CmxCell%20id%3D%221%22%20parent%3D%220%22%2F%3E%3CmxCell%20id%3D%222%22%20value%3D%22%22%20style%3D%22endArrow%3Dclassic%3Bhtml%3D1%3Brounded%3D0%3BentryX%3D0.767%3BentryY%3D0.113%3BentryDx%3D0%3BentryDy%3D0%3BentryPerimeter%3D0%3BexitX%3D0%3BexitY%3D1%3BexitDx%3D0%3BexitDy%3D0%3B%22%20edge%3D%221%22%20parent%3D%221%22%3E%3CmxGeometry%20width%3D%2250%22%20height%3D%2250%22%20relative%3D%221%22%20as%3D%22geometry%22%3E%3CmxPoint%20x%3D%22358%22%20y%3D%22238%22%20as%3D%22sourcePoint%22%2F%3E%3CmxPoint%20x%3D%22192%22%20y%3D%22409%22%20as%3D%22targetPoint%22%2F%3E%3C%2FmxGeometry%3E%3C%2FmxCell%3E%3C%2Froot%3E%3C%2FmxGraphModel%32&lt;/span&gt;" style="rounded=0;whiteSpace=wrap;html=1;" vertex="1" parent="1">
          <mxGeometry x="-345" y="720" width="120" height="60" as="geometry" />
        </mxCell>
        <mxCell id="K2EOrlknTvAKyvj50fSl-45" value="VM №3" style="rounded=0;whiteSpace=wrap;html=1;align=right;" vertex="1" parent="1">
          <mxGeometry x="-358" y="880" width="220" height="150" as="geometry" />
        </mxCell>
        <mxCell id="K2EOrlknTvAKyvj50fSl-46" value="Gitlab Runner №3&lt;span style=&quot;color: rgba(0, 0, 0, 0); font-family: monospace; font-size: 0px; text-align: start; text-wrap: nowrap;&quot;&gt;%3CmxGraphModel%3E%3Croot%3E%3CmxCell%20id%3D%220%22%2F%3E%3CmxCell%20id%3D%221%22%20parent%3D%220%22%2F%3E%3CmxCell%20id%3D%222%22%20value%3D%22%22%20style%3D%22endArrow%3Dclassic%3Bhtml%3D1%3Brounded%3D0%3BentryX%3D0.767%3BentryY%3D0.113%3BentryDx%3D0%3BentryDy%3D0%3BentryPerimeter%3D0%3BexitX%3D0%3BexitY%3D1%3BexitDx%3D0%3BexitDy%3D0%3B%22%20edge%3D%221%22%20parent%3D%221%22%3E%3CmxGeometry%20width%3D%2250%22%20height%3D%2250%22%20relative%3D%221%22%20as%3D%22geometry%22%3E%3CmxPoint%20x%3D%22358%22%20y%3D%22238%22%20as%3D%22sourcePoint%22%2F%3E%3CmxPoint%20x%3D%22192%22%20y%3D%22409%22%20as%3D%22targetPoint%22%2F%3E%3C%2FmxGeometry%3E%3C%2FmxCell%3E%3C%2Froot%3E%3C%2FmxGraphModel%32&lt;/span&gt;" style="rounded=0;whiteSpace=wrap;html=1;" vertex="1" parent="1">
          <mxGeometry x="-345" y="890" width="120" height="60" as="geometry" />
        </mxCell>
        <mxCell id="K2EOrlknTvAKyvj50fSl-47" value="" style="endArrow=classic;html=1;rounded=0;entryX=0;entryY=0.5;entryDx=0;entryDy=0;exitX=1;exitY=0.5;exitDx=0;exitDy=0;" edge="1" parent="1" source="K2EOrlknTvAKyvj50fSl-34" target="K2EOrlknTvAKyvj50fSl-39">
          <mxGeometry width="50" height="50" relative="1" as="geometry">
            <mxPoint x="-30" y="720" as="sourcePoint" />
            <mxPoint x="20" y="670" as="targetPoint" />
          </mxGeometry>
        </mxCell>
        <mxCell id="K2EOrlknTvAKyvj50fSl-48" value="" style="endArrow=classic;html=1;rounded=0;exitX=1;exitY=0.5;exitDx=0;exitDy=0;entryX=0;entryY=0.5;entryDx=0;entryDy=0;" edge="1" parent="1" source="K2EOrlknTvAKyvj50fSl-34" target="K2EOrlknTvAKyvj50fSl-43">
          <mxGeometry width="50" height="50" relative="1" as="geometry">
            <mxPoint x="30" y="770" as="sourcePoint" />
            <mxPoint x="80" y="720" as="targetPoint" />
          </mxGeometry>
        </mxCell>
        <mxCell id="K2EOrlknTvAKyvj50fSl-49" value="" style="endArrow=classic;html=1;rounded=0;exitX=1;exitY=0.5;exitDx=0;exitDy=0;entryX=0;entryY=0.5;entryDx=0;entryDy=0;" edge="1" parent="1" source="K2EOrlknTvAKyvj50fSl-34" target="K2EOrlknTvAKyvj50fSl-45">
          <mxGeometry width="50" height="50" relative="1" as="geometry">
            <mxPoint x="20" y="880" as="sourcePoint" />
            <mxPoint x="70" y="830" as="targetPoint" />
          </mxGeometry>
        </mxCell>
        <mxCell id="K2EOrlknTvAKyvj50fSl-50" value="GIT" style="rounded=0;whiteSpace=wrap;html=1;" vertex="1" parent="1">
          <mxGeometry x="-625" y="925" width="170" height="90" as="geometry" />
        </mxCell>
        <mxCell id="K2EOrlknTvAKyvj50fSl-51" value="" style="endArrow=classic;html=1;rounded=0;exitX=0.5;exitY=1;exitDx=0;exitDy=0;entryX=0.5;entryY=0;entryDx=0;entryDy=0;" edge="1" parent="1" source="K2EOrlknTvAKyvj50fSl-34" target="K2EOrlknTvAKyvj50fSl-50">
          <mxGeometry width="50" height="50" relative="1" as="geometry">
            <mxPoint x="-140" y="910" as="sourcePoint" />
            <mxPoint x="-90" y="860" as="targetPoint" />
          </mxGeometry>
        </mxCell>
        <mxCell id="K2EOrlknTvAKyvj50fSl-58" value="" style="endArrow=classic;html=1;rounded=0;exitX=0.5;exitY=1;exitDx=0;exitDy=0;entryX=0.5;entryY=0;entryDx=0;entryDy=0;" edge="1" parent="1" source="K2EOrlknTvAKyvj50fSl-27" target="K2EOrlknTvAKyvj50fSl-33">
          <mxGeometry width="50" height="50" relative="1" as="geometry">
            <mxPoint x="-290" y="490" as="sourcePoint" />
            <mxPoint x="-240" y="440" as="targetPoint" />
          </mxGeometry>
        </mxCell>
        <mxCell id="K2EOrlknTvAKyvj50fSl-59" value="HTTPS" style="text;html=1;align=center;verticalAlign=middle;resizable=0;points=[];autosize=1;strokeColor=none;fillColor=none;" vertex="1" parent="1">
          <mxGeometry x="420" y="-332" width="60" height="30" as="geometry" />
        </mxCell>
        <mxCell id="K2EOrlknTvAKyvj50fSl-60" value="HTTP" style="text;html=1;align=center;verticalAlign=middle;resizable=0;points=[];autosize=1;strokeColor=none;fillColor=none;" vertex="1" parent="1">
          <mxGeometry x="230" y="-10" width="50" height="30" as="geometry" />
        </mxCell>
      </root>
    </mxGraphModel>
  </diagram>
</mxfile>
